HIERARCHY
ROOT SimulationBone
{
	OFFSET 0.000000 0.000000 0.000000
	CHANNELS 6 Xposition Yposition Zposition Zrotation Yrotation Xrotation 
	JOINT Hips
	{
		OFFSET 0.000000 0.000000 0.000000
		CHANNELS 6 Xposition Yposition Zposition Zrotation Yrotation Xrotation 
		JOINT RightUpLeg
		{
			OFFSET 0.103462 1.857844 10.548508
			CHANNELS 3 Zrotation Yrotation Xrotation
			JOINT RightLeg
			{
				OFFSET 43.500000 -0.000046 -0.000008
				CHANNELS 3 Zrotation Yrotation Xrotation
				JOINT RightFoot
				{
					OFFSET 42.372192 0.000000 0.000004
					CHANNELS 3 Zrotation Yrotation Xrotation
					JOINT RightToe
					{
						OFFSET 17.299997 -0.000003 0.000018
						CHANNELS 3 Zrotation Yrotation Xrotation
						End Site
						{
							OFFSET 0.000000 0.000000 0.000000
						}
					}
				}
			}
		}
		JOINT LeftUpLeg
		{
			OFFSET 0.103459 1.857830 -10.548515
			CHANNELS 3 Zrotation Yrotation Xrotation
			JOINT LeftLeg
			{
				OFFSET 43.500046 -0.000034 -0.000006
				CHANNELS 3 Zrotation Yrotation Xrotation
				JOINT LeftFoot
				{
					OFFSET 42.372253 0.000015 -0.000006
					CHANNELS 3 Zrotation Yrotation Xrotation
					JOINT LeftToe
					{
						OFFSET 17.299969 -0.000012 0.000010
						CHANNELS 3 Zrotation Yrotation Xrotation
						End Site
						{
							OFFSET 0.000000 0.000000 0.000000
						}
					}
				}
			}
		}
		JOINT Spine
		{
			OFFSET 6.901964 -2.603727 0.000001
			CHANNELS 3 Zrotation Yrotation Xrotation
			JOINT Spine1
			{
				OFFSET 12.588105 -0.000009 0.000006
				CHANNELS 3 Zrotation Yrotation Xrotation
				JOINT Spine2
				{
					OFFSET 12.343197 0.000007 -0.000002
					CHANNELS 3 Zrotation Yrotation Xrotation
					JOINT Neck
					{
						OFFSET 25.832897 0.000002 -0.000001
						CHANNELS 3 Zrotation Yrotation Xrotation
						JOINT Head
						{
							OFFSET 11.766611 0.000000 0.000004
							CHANNELS 3 Zrotation Yrotation Xrotation
							End Site
							{
								OFFSET 0.000000 0.000000 0.000000
							}
						}
					}
					JOINT RightShoulder
					{
						OFFSET 19.745911 -1.480377 6.000110
						CHANNELS 3 Zrotation Yrotation Xrotation
						JOINT RightArm
						{
							OFFSET 11.284108 -0.000006 -0.000027
							CHANNELS 3 Zrotation Yrotation Xrotation
							JOINT RightForeArm
							{
								OFFSET 33.000046 -0.000010 0.000031
								CHANNELS 3 Zrotation Yrotation Xrotation
								JOINT RightHand
								{
									OFFSET 25.200014 0.000009 0.000001
									CHANNELS 3 Zrotation Yrotation Xrotation
									End Site
									{
										OFFSET 0.000000 0.000000 0.000000
									}
								}
							}
						}
					}
					JOINT LeftShoulder
					{
						OFFSET 19.746105 -1.480358 -6.000092
						CHANNELS 3 Zrotation Yrotation Xrotation
						JOINT LeftArm
						{
							OFFSET 11.284138 -0.000011 -0.000001
							CHANNELS 3 Zrotation Yrotation Xrotation
							JOINT LeftForeArm
							{
								OFFSET 33.000088 0.000023 -0.000007
								CHANNELS 3 Zrotation Yrotation Xrotation
								JOINT LeftHand
								{
									OFFSET 25.199776 0.000128 0.000427
									CHANNELS 3 Zrotation Yrotation Xrotation
									End Site
									{
										OFFSET 0.000000 0.000000 0.000000
									}
								}
							}
						}
					}
				}
			}
		}
	}
}
MOTION
Frames: 9
Frame Time: 0.016667
-137.983724 0.000000 -586.893492 0.000000 -32.353270 0.000000 -4.383863 91.299527 -0.892599 83.754847 -1.947157 -179.133256 170.734377 -3.465872 171.057114 -18.535963 3.609790 -6.902676 87.444459 1.783994 -16.556165 21.454558 0.003109 0.000017 150.920684 12.146428 -171.289695 -45.635022 0.111181 4.424665 85.566253 -2.545225 2.636690 21.454552 -0.003094 0.000000 6.537427 -0.269948 -0.387145 3.063849 -0.529683 -0.781187 2.745775 -0.534528 -0.777976 5.084601 -1.222898 -14.260174 -26.867001 14.269521 -21.794506 -168.607070 -77.548882 -13.067680 11.437576 51.300622 34.581934 -77.417008 -7.578010 2.323527 -1.868949 -3.243477 23.294898 -147.231663 78.019639 34.874831 0.874519 -63.622779 -26.371307 -96.071165 1.872089 -2.705999 -0.392939 -3.260744 -30.899599 
-137.805691 0.000000 -587.728644 0.000000 -34.784039 0.000000 -4.518015 91.324318 -0.866419 83.530699 -1.998920 -179.612038 170.574508 -2.911895 168.978853 -19.095896 3.703584 -7.366267 87.816171 2.205761 -16.278530 21.454558 0.003108 0.000017 150.420285 11.990301 -168.269073 -47.163230 -0.243106 4.984843 85.646398 -2.995597 2.287756 21.454553 -0.003095 0.000000 6.510832 -0.327421 -0.369587 3.010972 -0.645244 -0.747429 2.692892 -0.649880 -0.743516 4.995970 -0.871330 -13.959790 -26.973386 13.899940 -21.264573 -169.058273 -77.486101 -12.607187 11.016660 51.552160 33.617773 -76.720393 -7.838510 2.312518 -1.437963 -3.316977 23.701451 -146.493184 77.791601 35.634982 1.826452 -62.601769 -27.857170 -95.636752 1.939667 -2.691327 0.085932 -4.096983 -30.705647 
-137.633644 0.000000 -588.525697 0.000000 -37.166749 0.000000 -4.623510 91.328717 -0.861476 83.300356 -2.205723 -179.979917 170.421416 -2.170939 166.952676 -19.500127 3.872941 -7.788152 88.095897 2.573616 -16.051298 21.454558 0.003108 0.000018 150.074345 12.047074 -165.513314 -48.620335 -0.658390 5.298344 85.855914 -3.278979 1.912967 21.454553 -0.003091 0.000000 6.467709 -0.420568 -0.399447 2.925578 -0.831050 -0.809219 2.607491 -0.836055 -0.804184 5.033813 -0.671787 -13.543542 -27.111058 13.690687 -20.721753 -169.575682 -77.334090 -12.078861 10.758058 51.796028 32.707797 -75.821116 -8.232864 2.302459 -1.290940 -3.660261 23.855728 -146.547111 77.595983 35.586673 2.760628 -61.545520 -29.223036 -95.274621 2.021470 -2.680765 0.768146 -4.760178 -30.720800 
-137.462845 0.000000 -589.274053 0.000000 -39.500293 0.000000 -4.700529 91.347763 -0.874531 83.108714 -2.431770 179.673107 170.372867 -1.374690 164.993847 -19.678994 4.113367 -8.214859 88.238147 2.910817 -15.901681 21.454558 0.003109 0.000019 149.948210 12.140704 -163.237628 -49.844797 -0.989745 5.493285 86.000325 -3.465939 1.598021 21.454553 -0.003087 0.000000 6.424842 -0.515402 -0.441932 2.840931 -1.019966 -0.896165 2.522829 -1.025494 -0.889990 5.093253 -0.640847 -13.039928 -27.181657 13.620250 -20.170735 -169.921841 -77.133383 -11.724995 10.525147 52.133795 31.841928 -74.789006 -8.693317 2.289882 -1.221284 -4.419187 23.672956 -147.004861 77.454210 35.125013 3.686899 -60.564515 -30.474524 -94.896619 2.145425 -2.672772 1.445850 -5.211149 -31.163447 
-137.291552 0.000000 -589.969623 0.000000 -41.783713 0.000000 -4.742413 91.399991 -0.897289 83.004757 -2.558446 179.255300 170.482872 -0.668164 163.086632 -19.667214 4.386289 -8.663686 88.264036 3.233382 -15.835599 21.454557 0.003109 0.000018 150.082172 12.095972 -161.631436 -50.710840 -1.094711 5.725291 85.949135 -3.655453 1.417835 21.454549 -0.003090 -0.000000 6.398045 -0.581472 -0.459777 2.788086 -1.151871 -0.933189 2.469963 -1.157623 -0.926215 5.057676 -0.732966 -12.484984 -27.096370 13.613757 -19.590013 -169.935758 -76.923265 -11.710215 10.184923 52.643725 30.987058 -73.715389 -9.148520 2.275476 -1.016249 -5.611265 23.186468 -147.352905 77.374362 34.773452 4.588092 -59.765884 -31.615122 -94.409304 2.327753 -2.664048 1.879074 -5.432282 -32.160303 
-137.121146 0.000000 -590.606225 0.000000 -44.017422 0.000000 -4.752044 91.451302 -0.927604 82.984269 -2.627574 178.851543 170.682329 -0.013401 161.437682 -19.606526 4.638671 -9.202952 88.277114 3.606264 -15.838642 21.454557 0.003109 0.000017 150.525170 11.973694 -160.392431 -51.191837 -1.061379 6.055796 85.988051 -3.905549 1.296629 21.454548 -0.003093 0.000000 6.384855 -0.623652 -0.469805 2.762193 -1.236090 -0.954113 2.444057 -1.241968 -0.946628 4.932901 -0.873729 -11.914815 -26.887078 13.569412 -18.963084 -169.774159 -76.693416 -11.874694 9.730310 53.236391 30.140893 -72.574304 -9.630833 2.261957 -0.795943 -6.807515 22.666432 -147.371096 77.389925 34.754858 5.490877 -59.189208 -32.685651 -93.863457 2.520239 -2.653004 2.041452 -5.422209 -33.474162 
-136.954727 0.000000 -591.176049 0.000000 -46.202856 0.000000 -4.739336 91.471015 -0.961493 83.014560 -2.691898 178.561152 170.879664 0.631532 160.212438 -19.625097 4.831911 -9.877083 88.361820 4.073909 -15.897442 21.454556 0.003108 0.000016 151.291567 11.849238 -159.222667 -51.277626 -0.980459 6.541934 86.381273 -4.268151 1.149923 21.454551 -0.003089 0.000001 6.376968 -0.652255 -0.494181 2.746930 -1.292788 -1.003455 2.428800 -1.298962 -0.995630 4.754156 -0.985748 -11.358497 -26.612317 13.399929 -18.277389 -169.650535 -76.439064 -12.000401 9.202014 53.808211 29.311521 -71.335219 -10.172923 2.248751 -0.737949 -7.564918 22.366172 -146.976877 77.506765 35.152557 6.417226 -58.818939 -33.722982 -93.341641 2.672054 -2.640325 1.991052 -5.205667 -34.834040 
-136.796495 0.000000 -591.675036 0.000000 -48.340245 0.000000 -4.728101 91.494743 -0.975758 83.027377 -2.691330 178.359417 171.017760 1.167799 159.194238 -19.690341 5.006965 -10.579042 88.442951 4.550099 -16.027932 21.454557 0.003107 0.000016 152.223715 11.630397 -158.337568 -50.921112 -0.719239 7.299495 86.887655 -4.818336 1.018999 21.454557 -0.003084 0.000002 6.360738 -0.663917 -0.522488 2.714880 -1.315604 -1.060158 2.396761 -1.322118 -1.052197 4.547770 -1.005839 -10.816691 -26.310007 13.099972 -17.527606 -169.727481 -76.227802 -11.921195 8.677988 54.364127 28.492130 -70.068710 -10.704766 2.232655 -0.845168 -7.813146 22.189705 -146.394023 77.598409 35.742940 7.331674 -58.489824 -34.715590 -92.909123 2.786284 -2.629169 1.923051 -4.874714 -36.188083 
-136.652437 0.000000 -592.102166 0.000000 -50.428406 0.000000 -4.734390 91.559159 -0.950001 82.964562 -2.570559 178.194901 171.058192 1.510705 158.158112 -19.744248 5.207996 -11.210261 88.430874 4.951563 -16.252889 21.454557 0.003109 0.000017 153.152444 11.231538 -157.936581 -50.095166 -0.213983 8.384329 87.238758 -5.583213 0.967242 21.454558 -0.003084 0.000002 6.323688 -0.655979 -0.540468 2.640909 -1.299678 -1.095510 2.322791 -1.306403 -1.087644 4.325745 -0.907939 -10.281836 -25.993823 12.695580 -16.716106 -170.081007 -76.118883 -11.559332 8.230920 54.925247 27.690529 -68.869589 -11.140125 2.213796 -1.048124 -7.630916 21.999097 -145.856664 77.547390 36.292118 8.184443 -58.058371 -35.626362 -92.606709 2.876041 -2.622011 2.022030 -4.534800 -37.492431 
